HIERARCHY
ROOT Hips
{
	OFFSET 0.00000 0.00000 0.00000
	CHANNELS 6 Xposition Yposition Zposition Yrotation Zrotation Xrotation 
	JOINT Lumbar
	{
		OFFSET 0 0 0
		CHANNELS 3 Zrotation Xrotation Yrotation
		JOINT Neck
		{
			OFFSET 0.00 0.2701 0.00
			CHANNELS 3 Zrotation Xrotation Yrotation
			End Site
			{
				OFFSET 0.00 0.1379 0.00
			}
		}
		JOINT RightShoulder
		{
			OFFSET 0.0119 0.2289 0.1181
			CHANNELS 3 Zrotation Xrotation Yrotation
			JOINT RightElbow
			{
				OFFSET 0.00 -0.1475 0.00
				CHANNELS 2 Zrotation Yrotation
				JOINT RightWrist
				{
					OFFSET 0.00 -0.1605 0.00
					CHANNELS 2 Zrotation Xrotation
					End Site
					{
						OFFSET 0.0040 -0.1068 0.0006
					}
				}
			}
		}
		JOINT LeftShoulder
		{
			OFFSET 0.0119 0.2289 -0.1181
			CHANNELS 3 Zrotation Xrotation Yrotation
			JOINT LeftElbow
			{
				OFFSET 0.00 -0.1475 0.00
				CHANNELS 2 Zrotation Yrotation
				JOINT LeftWrist
				{
					OFFSET 0.00 -0.1605 0.00
					CHANNELS 2 Zrotation Xrotation
					End Site
					{
						OFFSET 0.0040 -0.1068 -0.0006
					}
				}
			}
		}
	}
	JOINT RightHip
	{
		OFFSET 0.0316 -0.0424 0.0458
		CHANNELS 3 Zrotation Xrotation Yrotation
		JOINT RightKnee
		{
			OFFSET 0.00 -0.2438 0.00
			CHANNELS 1 Zrotation
			JOINT RightAnkle
			{
				OFFSET 0.00 -0.2449 0.00
				CHANNELS 3 Zrotation Xrotation Yrotation
				End Site
				{
					OFFSET 0.1237 -0.0542 0.0051
				}
			}
		}
	}
	JOINT LeftHip
	{
		OFFSET 0.0316 -0.0424 -0.0458
		CHANNELS 3 Zrotation Xrotation Yrotation
		JOINT LeftKnee
		{
			OFFSET 0.00 -0.2438 0.00
			CHANNELS 1 Zrotation
			JOINT LeftAnkle
			{
				OFFSET 0.00 -0.2449 0.00
				CHANNELS 3 Zrotation Xrotation Yrotation
				End Site
				{
					OFFSET 0.1237 -0.0542 -0.0051
				}
			}
		}
	}
}
MOTION
Frames: 25
Frame Time: 0.02
-1.83717 0.01124 0.05303 514.75971 -29.06438 -13.30614 30.90943 -3.15564 -8.40561 -29.70484 -16.06699 -0.83079 -35.8607 -19.631 0.05234 58.04057 81.37184 -2.22341 -0.3542 -11.33017 25.89564 -9.06251 35.48663 -79.58318 -6.92628 -1.16593 8.2933 -4.58518 31.91469 0.47674 -29.44843 -23.81068 -17.176 6.31709 3.31609 10.11006 0.50554 -5.15547 13.34183 7.98156
-1.83502 0.01139 0.0531 514.40282 -29.25566 -13.51144 30.7549 -3.21794 -7.81984 -29.62813 -16.13955 -0.83079 -35.93313 -18.98104 -0.24418 57.60291 81.33853 -2.17913 0.97105 -11.2999 26.24162 -9.18218 35.30074 -79.58609 -6.83992 -1.26916 8.33222 -4.80193 31.01869 0.47445 -32.22211 -26.08081 -17.78286 6.74681 3.49819 10.32245 0.50749 -4.79515 13.39889 7.98961
-1.83262 0.01156 0.05304 513.99549 -29.33183 -13.66695 30.44836 -3.28126 -6.94396 -29.59678 -16.2252 -0.83079 -35.97902 -18.17555 -0.54987 57.0612 81.34187 -2.07935 2.61846 -11.26243 26.58408 -9.30202 35.09846 -79.58323 -6.67575 -1.33493 8.23789 -4.95704 29.52697 0.47024 -36.93602 -29.89486 -18.79824 7.05627 3.63273 10.62787 0.5094 -4.45111 13.36474 7.95214
-1.83033 0.01171 0.05303 513.61951 -29.46635 -13.84574 30.21515 -3.34418 -6.2109 -29.54807 -16.30532 -0.83079 -36.03175 -17.46944 -0.80576 56.58856 81.34058 -1.9987 4.02732 -11.24318 26.92071 -9.39582 34.90284 -79.58305 -6.55316 -1.41731 8.20362 -5.13627 28.33504 0.46669 -40.63778 -32.87529 -19.59416 7.42831 3.79268 10.88144 0.51135 -4.09563 13.37892 7.93867
-1.82808 0.01189 0.05304 513.20504 -29.58381 -14.02511 29.97041 -3.40618 -5.42727 -29.48342 -16.37961 -0.83079 -36.10677 -16.63899 -1.25216 56.01828 81.29075 -1.94192 5.81829 -11.16719 27.29124 -9.59954 34.71831 -79.58259 -6.40459 -1.50403 8.18321 -5.33263 26.99062 0.46385 -44.86083 -36.38765 -20.52654 7.77678 3.93914 11.17283 0.51324 -3.75337 13.36833 7.91386
-1.82568 0.01203 0.05297 512.86379 -29.70203 -14.18743 29.70643 -3.47189 -4.6828 -29.46423 -16.47149 -0.83079 -36.12879 -16.03061 -1.30817 55.6301 81.34768 -1.82462 6.89928 -11.20415 27.58884 -9.57602 34.50121 -79.58122 -6.29143 -1.57136 8.09161 -5.47831 25.83422 0.45912 -48.46878 -39.1682 -21.27376 8.13702 4.10013 11.40708 0.51523 -3.39009 13.38475 7.90016
-1.82292 0.01204 0.05274 512.68774 -29.90498 -14.35004 29.48794 -3.52997 -4.10376 -29.55161 -16.5995 -0.83079 -36.01231 -16.08913 -0.24076 55.75467 81.71785 -1.53299 5.85659 -11.56769 27.69215 -8.90325 34.22978 -79.58045 -6.29641 -1.60058 7.9144 -5.49825 25.31786 0.44972 -49.91297 -39.54012 -21.40672 8.62355 4.33009 11.47872 0.51758 -2.94923 13.51434 7.937
-1.82001 0.012 0.05241 512.59528 -30.10392 -14.49165 29.24624 -3.59393 -3.5771 -29.68483 -16.74714 -0.83079 -35.84259 -16.37461 1.21256 56.06945 82.18941 -1.186 4.10356 -12.04175 27.72066 -8.00585 33.91933 -79.57866 -6.33936 -1.61045 7.6567 -5.46817 25.00636 0.4384 -50.66896 -39.11913 -21.33561 9.11571 4.57374 11.4869 0.52003 -2.48921 13.67119 7.98489
-1.81717 0.01198 0.05211 512.49772 -30.26596 -14.6185 28.97156 -3.66787 -3.03591 -29.80246 -16.89204 -0.83079 -35.69703 -16.54611 2.46045 56.30811 82.59626 -0.87832 2.73138 -12.4563 27.77916 -7.22473 33.60563 -79.57624 -6.36416 -1.62442 7.38137 -5.46305 24.63908 0.42808 -51.74433 -39.08239 -21.36745 9.55964 4.79868 11.51299 0.52238 -2.04935 13.80402 8.0215
-1.81434 0.01197 0.05189 512.26297 -30.57952 -14.84201 28.86503 -3.69247 -2.44551 -29.89964 -17.01039 -0.83079 -35.55295 -16.7563 3.83266 56.50007 83.08187 -0.50999 1.12686 -12.91086 27.85484 -6.38227 33.38097 -79.57827 -6.39039 -1.65567 7.32263 -5.45141 24.14944 0.41761 -52.87868 -39.03367 -21.39154 10.18307 5.07148 11.5884 0.52495 -1.56446 13.98131 8.0822
-1.81145 0.01194 0.05147 512.33022 -30.58805 -14.86513 28.41769 -3.81616 -1.97369 -30.04956 -17.18957 -0.83079 -35.39066 -16.94378 5.04044 56.83511 83.42853 -0.25428 -0.16839 -13.3072 27.87658 -5.61608 32.9606 -79.57083 -6.42319 -1.64841 6.80505 -5.43595 23.90031 0.40644 -53.67674 -38.75699 -21.35139 10.44707 5.25251 11.54479 0.5271 -1.16509 14.07554 8.09689
-1.80847 0.0119 0.05054 513.24858 -29.66766 -14.29311 26.92349 -4.25649 -1.81873 -30.33431 -17.52245 -0.83079 -35.21552 -16.99748 5.67596 57.52581 83.35348 -0.33454 -0.42211 -13.52601 27.77121 -5.09895 32.02053 -79.53776 -6.46956 -1.52612 4.95652 -5.47862 24.89906 0.39916 -53.92818 -38.43401 -21.41806 9.61615 5.14061 11.18767 0.52796 -1.03725 13.91793 7.97386
-1.80543 0.01184 0.0494 514.4617 -28.4561 -13.52795 25.108 -4.78882 -1.78199 -30.66969 -17.91689 -0.83079 -35.01949 -17.02424 6.13692 58.35305 83.13739 -0.52823 -0.34416 -13.68063 27.61344 -4.66908 30.88381 -79.49513 -6.52075 -1.3686 2.66478 -5.5103 26.03375 0.39044 -53.82204 -37.83879 -21.38713 8.44131 4.94179 10.71242 0.52842 -0.99069 13.67929 7.80588
-1.80241 0.01177 0.04834 515.51477 -27.43743 -12.88379 23.51432 -5.24885 -1.69161 -30.98216 -18.29018 -0.83079 -34.8171 -17.0742 6.69379 59.11379 82.99435 -0.66277 -0.42881 -13.85778 27.47743 -4.21053 29.82858 -79.45681 -6.56703 -1.23603 0.63206 -5.50861 26.67301 0.3787 -53.72137 -37.09229 -21.23788 7.49266 4.80815 10.2913 0.52915 -0.88626 13.48843 7.66388
-1.79941 0.01175 0.04734 516.67883 -26.16794 -12.10355 21.60248 -5.83455 -1.60403 -31.29823 -18.63815 -0.83079 -34.67963 -17.08542 7.1952 59.90032 82.81703 -0.82736 -0.48832 -14.06634 27.34769 -3.69917 28.80116 -79.4188 -6.62606 -1.06439 -1.64474 -5.66155 29.08317 0.38171 -54.23353 -37.43827 -21.74486 6.2551 4.57107 9.86688 0.52952 -0.86803 13.25177 7.49867
-1.79637 0.01164 0.04617 517.68323 -25.3454 -11.55491 20.27389 -6.18434 -1.53613 -31.61521 -19.0497 -0.83079 -34.40284 -17.16838 7.76427 60.66256 82.67635 -0.95713 -0.51171 -14.19342 27.19314 -3.31974 27.67474 -79.37765 -6.65922 -0.96681 -3.51983 -5.49743 27.91812 0.35452 -53.4274 -35.50676 -20.89417 5.52998 4.52293 9.42115 0.53051 -0.6917 13.09146 7.37117
-1.79322 0.01131 0.04459 518.15202 -25.88405 -11.74708 20.66552 -5.82492 -1.50998 -31.94752 -19.6515 -0.83079 -33.74491 -17.45209 8.57286 61.32724 82.66989 -0.96287 -0.51786 -14.10518 26.98583 -3.30049 26.2813 -79.3324 -6.61943 -1.0752 -4.154 -4.4011 16.14349 0.23714 -48.77649 -26.91599 -16.07054 6.37041 5.06662 8.95365 0.5334 -0.04255 13.1571 7.35706
-1.79004 0.01088 0.04285 518.45369 -26.87257 -12.16905 21.65 -5.23122 -1.49619 -32.27387 -20.3092 -0.83079 -32.94786 -17.80858 9.45175 61.96075 82.70455 -0.93028 -0.49534 -13.93767 26.75525 -3.40984 24.80422 -79.28408 -6.55331 -1.26033 -4.37173 -2.99756 0.90738 0.0908 -42.87107 -16.13726 -9.93659 7.72669 5.79427 8.46752 0.53668 0.76545 13.30303 7.38266
-1.7869 0.01048 0.04119 518.84638 -27.61808 -12.45043 22.34221 -4.76817 -1.46589 -32.58642 -20.92205 -0.83079 -32.21601 -18.13317 10.29002 62.60629 82.72134 -0.91521 -0.48145 -13.80993 26.5337 -3.44893 23.39152 -79.2355 -6.49929 -1.41571 -4.79589 -1.77367 -12.29698 -0.03766 -37.73213 -6.63884 -4.55921 8.80235 6.40557 7.98495 0.54 1.48984 13.41527 7.39126
-1.78364 0.01016 0.03949 519.18608 -28.51459 -12.87753 23.11773 -4.20726 -1.48605 -32.97125 -21.62036 -0.83079 -31.47583 -18.45189 11.15917 63.26784 82.73141 -0.90233 -0.47487 -13.66446 26.31656 -3.53695 21.85571 -79.19288 -6.44494 -1.55009 -5.16623 -0.37971 -27.47705 -0.18632 -31.74281 4.11496 1.52388 10.05819 7.15208 7.51911 0.54332 2.25934 13.51326 7.39417
-1.78063 0.00965 0.03783 519.59225 -29.20927 -13.05842 23.8671 -3.79207 -1.40206 -33.20249 -22.15166 -0.83079 -30.71925 -18.80059 11.98275 63.88419 82.76507 -0.87598 -0.45067 -13.53759 26.0857 -3.55735 20.56518 -79.13813 -6.38487 -1.74453 -5.53998 0.73205 -39.3104 -0.29947 -27.24219 12.72223 6.41922 11.06925 7.66184 7.01532 0.54557 2.97401 13.66057 7.41856
-1.77832 0.00865 0.03626 520.2244 -29.21964 -12.50236 24.37977 -3.84675 -1.03029 -33.01883 -22.21996 -0.83079 -29.95979 -19.21218 12.66486 64.4037 82.87208 -0.80665 -0.38363 -13.48421 25.82057 -3.31812 19.92168 -79.04315 -6.31599 -2.1066 -6.05751 0.99623 -41.55359 -0.31017 -27.06411 15.28688 7.95942 11.25194 7.47276 6.41415 0.54922 3.4906 13.92508 7.49466
-1.77625 0.00747 0.03474 520.92728 -29.0156 -11.69195 24.85038 -4.05358 -0.55208 -32.67923 -22.1155 -0.83079 -29.18699 -19.65158 13.29906 64.87332 82.99902 -0.72706 -0.30166 -13.45185 25.54318 -3.01385 19.53898 -78.93755 -6.24207 -2.52274 -6.58484 0.96488 -40.23498 -0.28371 -28.44167 15.54702 8.21944 11.17882 7.03971 5.77566 0.54715 3.94481 14.2341 7.58982
-1.77406 0.00637 0.0332 521.59545 -28.92277 -10.9992 25.3553 -4.18393 -0.12023 -32.40547 -22.08233 -0.83079 -28.41522 -20.08019 13.95523 65.353 83.10514 -0.66193 -0.22885 -13.40871 25.27299 -2.76601 19.07038 -78.84174 -6.17014 -2.90089 -7.0838 1.0638 -40.19806 -0.27236 -29.17838 16.57119 8.89571 11.23958 6.71863 5.15273 0.54965 4.43769 14.52606 7.67636
-1.77195 0.00529 0.03163 522.26942 -28.78888 -10.30461 25.81876 -4.33806 0.30235 -32.15215 -22.08258 -0.83079 -27.6607 -20.50498 14.61358 65.88896 83.26096 -0.55539 -0.14476 -13.36893 24.99483 -2.40884 18.45854 -78.72472 -6.09881 -3.33857 -7.66833 1.18885 -41.63028 -0.26912 -29.6146 18.8221 10.28915 11.23664 6.39858 4.53426 0.55952 4.90727 14.81819 7.76823
